# xmcd CD database file
# Copyright (C) 1993-1996 Ti Kan
#
# Track frame offsets:
#  150
#  13747
#  27955
#  39315
#  49695
#  60600
#  73165
#  88857
#  96800
#  109885
#  120365
#  136145
#  146247
#  156925
#  170435
#  181440
#  193570
#  214072
#  231257
#  243135
#
# Disc length: 3388 seconds
#
# Revision: 1
# Processed by: cddbd v1.5.2PL0 Copyright (c) Steve Scherf et al.
# Submitted via: Advanced CD Ripper Pro 2.0
#
DISCID=180d3a14
DTITLE=Various Artist - Soul Emotions
DYEAR=1996
DGENRE=Soul
TTITLE0=Etta James - My Dearest Darling
TTITLE1=Ray Charles - Walkin' and Talkin'
TTITLE2=Maxine Brown - It's All in My Mind
TTITLE3=Gladys Knight - Moning, Noon and Night
TTITLE4=The Tams - Hey Girl Don't Bother Me
TTITLE5=Fontella Bass - Rescue Me
TTITLE6=The Driffers - Cupid
TTITLE7=The Impressions - Don't Leave
TTITLE8=Jimmy Reed - Let's Get Together
TTITLE9=Sam the Sham and the Pharaohs - Woodly Bully
TTITLE10=Harold Melvin - If You Don't Know Me By Now
TTITLE11=Archie Bell and The Drells - I Just Can't Stop Dancing
TTITLE12=Lee Dorsey - Ye Ye
TTITLE13=Jimmy Ruffin - What Becomes Of the Broken Hearted
TTITLE14=Irma Thomas - Set Me Free
TTITLE15=Dave Berry - The Crying Game
TTITLE16=Gloria Gaynor - Feel so Real
TTITLE17=Dobie Gray - Drift Away
TTITLE18=Percy Sledge - Warm And Tender Lover
TTITLE19=The Driffers - Save The Last Dance For Me
EXTD=
EXTT0=
EXTT1=
EXTT2=
EXTT3=
EXTT4=
EXTT5=
EXTT6=
EXTT7=
EXTT8=
EXTT9=
EXTT10=
EXTT11=
EXTT12=
EXTT13=
EXTT14=
EXTT15=
EXTT16=
EXTT17=
EXTT18=
EXTT19=
PLAYORDER=
